<svg width="30" height="30" viewBox="0 0 30 30" fill="none" xmlns="http://www.w3.org/2000/svg">
<path d="M25.3125 7.61719H21.3281L20.3789 4.95703C20.3133 4.775 20.1931 4.61766 20.0348 4.5065C19.8764 4.39533 19.6876 4.33577 19.4941 4.33594H10.5059C10.1104 4.33594 9.75586 4.58496 9.62402 4.95703L8.67188 7.61719H4.6875C3.39258 7.61719 2.34375 8.66602 2.34375 9.96094V23.3203C2.34375 24.6152 3.39258 25.6641 4.6875 25.6641H25.3125C26.6074 25.6641 27.6562 24.6152 27.6562 23.3203V9.96094C27.6562 8.66602 26.6074 7.61719 25.3125 7.61719ZM15 20.9766C12.4102 20.9766 10.3125 18.8789 10.3125 16.2891C10.3125 13.6992 12.4102 11.6016 15 11.6016C17.5898 11.6016 19.6875 13.6992 19.6875 16.2891C19.6875 18.8789 17.5898 20.9766 15 20.9766ZM12.1875 16.2891C12.1875 17.035 12.4838 17.7504 13.0113 18.2778C13.5387 18.8052 14.2541 19.1016 15 19.1016C15.7459 19.1016 16.4613 18.8052 16.9887 18.2778C17.5162 17.7504 17.8125 17.035 17.8125 16.2891C17.8125 15.5431 17.5162 14.8278 16.9887 14.3003C16.4613 13.7729 15.7459 13.4766 15 13.4766C14.2541 13.4766 13.5387 13.7729 13.0113 14.3003C12.4838 14.8278 12.1875 15.5431 12.1875 16.2891Z" fill="#7D7D7D"/>
</svg>
