<svg width="50" height="25" viewBox="0 0 50 25" fill="none" xmlns="http://www.w3.org/2000/svg">
<path d="M14.08 0.103998H24.768V5.352H23.488L17.76 25H7.392L1.664 5.352H0.384V0.103998H12.672V5.352H11.008L13.216 16.072H13.536L15.744 5.352H14.08V0.103998ZM25.7963 19.752H27.3963V5.352H25.7963V0.103998H40.4843C43.1509 0.103998 45.2309 0.647998 46.7243 1.736C48.2176 2.824 48.9643 4.38133 48.9643 6.408C48.9643 7.66667 48.6656 8.73333 48.0683 9.608C47.4709 10.4613 46.7669 11.112 45.9563 11.56C45.1669 11.9867 44.3989 12.2747 43.6523 12.424V12.744C45.1669 12.8933 46.5323 13.3733 47.7483 14.184C48.9643 14.9947 49.5723 16.4453 49.5723 18.536C49.5723 20.776 48.7296 22.4187 47.0443 23.464C45.3589 24.488 43.1723 25 40.4843 25H25.7963V19.752ZM38.0843 10.6C38.7029 10.6 39.1616 10.44 39.4603 10.12C39.7803 9.77867 39.9403 9.256 39.9403 8.552V7.4C39.9403 6.696 39.7803 6.184 39.4603 5.864C39.1616 5.52267 38.7029 5.352 38.0843 5.352H36.3563V10.6H38.0843ZM38.3083 19.752C38.9269 19.752 39.3856 19.592 39.6843 19.272C40.0043 18.9307 40.1643 18.408 40.1643 17.704V16.296C40.1643 15.592 40.0043 15.08 39.6843 14.76C39.3856 14.4187 38.9269 14.248 38.3083 14.248H36.3563V19.752H38.3083Z" fill="black"/>
</svg>
