<svg width="35" height="35" viewBox="0 0 35 35" fill="none" xmlns="http://www.w3.org/2000/svg">
<path fill-rule="evenodd" clip-rule="evenodd" d="M2.1875 17.5C2.1875 21.5611 3.80078 25.4559 6.67243 28.3276C9.54408 31.1992 13.4389 32.8125 17.5 32.8125C21.5611 32.8125 25.4559 31.1992 28.3276 28.3276C31.1992 25.4559 32.8125 21.5611 32.8125 17.5C32.8125 13.4389 31.1992 9.54408 28.3276 6.67243C25.4559 3.80078 21.5611 2.1875 17.5 2.1875C13.4389 2.1875 9.54408 3.80078 6.67243 6.67243C3.80078 9.54408 2.1875 13.4389 2.1875 17.5V17.5ZM35 17.5C35 22.1413 33.1563 26.5925 29.8744 29.8744C26.5925 33.1563 22.1413 35 17.5 35C12.8587 35 8.40752 33.1563 5.12563 29.8744C1.84375 26.5925 0 22.1413 0 17.5C0 12.8587 1.84375 8.40752 5.12563 5.12563C8.40752 1.84375 12.8587 0 17.5 0C22.1413 0 26.5925 1.84375 29.8744 5.12563C33.1563 8.40752 35 12.8587 35 17.5V17.5ZM25.1562 16.4062C25.4463 16.4062 25.7245 16.5215 25.9296 16.7266C26.1348 16.9317 26.25 17.2099 26.25 17.5C26.25 17.7901 26.1348 18.0683 25.9296 18.2734C25.7245 18.4785 25.4463 18.5938 25.1562 18.5938H12.4841L17.1806 23.2881C17.2823 23.3898 17.363 23.5105 17.418 23.6434C17.4731 23.7763 17.5014 23.9187 17.5014 24.0625C17.5014 24.2063 17.4731 24.3487 17.418 24.4816C17.363 24.6145 17.2823 24.7352 17.1806 24.8369C17.0789 24.9386 16.9582 25.0192 16.8253 25.0743C16.6925 25.1293 16.5501 25.1576 16.4062 25.1576C16.2624 25.1576 16.12 25.1293 15.9872 25.0743C15.8543 25.0192 15.7336 24.9386 15.6319 24.8369L9.06937 18.2744C8.96752 18.1728 8.8867 18.0521 8.83157 17.9192C8.77643 17.7863 8.74804 17.6439 8.74804 17.5C8.74804 17.3561 8.77643 17.2137 8.83157 17.0808C8.8867 16.9479 8.96752 16.8272 9.06937 16.7256L15.6319 10.1631C15.8373 9.95775 16.1158 9.84237 16.4062 9.84237C16.6967 9.84237 16.9752 9.95775 17.1806 10.1631C17.386 10.3685 17.5014 10.6471 17.5014 10.9375C17.5014 11.2279 17.386 11.5065 17.1806 11.7119L12.4841 16.4062H25.1562Z" fill="black"/>
</svg>
