<svg width="23" height="12" viewBox="0 0 23 12" fill="none" xmlns="http://www.w3.org/2000/svg">
<path d="M21.4036 0.269039L11.499 9.83291L1.59441 0.269039C1.41745 0.0978189 1.1799 0.00196289 0.932524 0.00196289C0.685153 0.00196289 0.447597 0.0978189 0.270635 0.269039C0.18495 0.352201 0.116878 0.451463 0.0704074 0.561012C0.0239364 0.670561 0 0.788195 0 0.907023C0 1.02585 0.0239364 1.14348 0.0704074 1.25303C0.116878 1.36258 0.18495 1.46184 0.270635 1.54501L10.8074 11.7213C10.9924 11.9 11.2406 12 11.499 12C11.7574 12 12.0056 11.9 12.1906 11.7213L22.7273 1.54697C22.8136 1.46375 22.8822 1.36424 22.929 1.25433C22.9759 1.14441 23 1.02632 23 0.907023C23 0.787722 22.9759 0.66963 22.929 0.559717C22.8822 0.449805 22.8136 0.3503 22.7273 0.267075C22.5504 0.0958551 22.3128 0 22.0654 0C21.8181 0 21.5805 0.0958551 21.4036 0.267075V0.269039Z" fill="black"/>
</svg>
